<svg version="1.1" xmlns="http://www.w3.org/2000/svg" viewBox="0 0 948.701080398679 633" width="1897.402160797358" height="1266">
  <!-- svg-source:excalidraw -->
  
  <defs>
    <style class="style-fonts">
      @font-face {
        font-family: "Virgil";
        src: url("https://excalidraw.com/Virgil.woff2");
      }
      @font-face {
        font-family: "Cascadia";
        src: url("https://excalidraw.com/Cascadia.woff2");
      }
    </style>
    
  </defs>
  <rect x="0" y="0" width="948.701080398679" height="633" fill="#ffffff"></rect><g stroke-linecap="round" transform="translate(360.3819258029429 10) rotate(0 144 52.5)"><path d="M3.9 10.01 C3.9 10.01, 3.9 10.01, 3.9 10.01 M3.9 10.01 C3.9 10.01, 3.9 10.01, 3.9 10.01 M9.41 28.06 C16.32 21.53, 21.6 15.2, 30.41 3.91 M9.41 28.06 C16.13 19.8, 22.63 12.89, 30.41 3.91 M9.68 52.14 C20.81 37.77, 32.46 25.83, 51.67 3.84 M9.68 52.14 C20.93 38.88, 32.22 26, 51.67 3.84 M1.42 86.03 C30.77 55.52, 58.49 23.67, 72.93 3.77 M1.42 86.03 C18.15 65.71, 37.14 45.73, 72.93 3.77 M9.56 101.06 C39.68 67.77, 66.42 32.75, 94.19 3.7 M9.56 101.06 C30.75 76.51, 50.33 52.58, 94.19 3.7 M26.88 105.52 C44.4 82.25, 65.04 64.11, 115.45 3.63 M26.88 105.52 C57.51 69.56, 87.49 35.39, 115.45 3.63 M48.14 105.45 C74.75 73.27, 106.35 39.28, 136.71 3.56 M48.14 105.45 C67.38 83.86, 84.85 62.9, 136.71 3.56 M69.4 105.38 C85.42 83.33, 104.59 64.81, 157.97 3.49 M69.4 105.38 C101.49 66.2, 134.79 29.07, 157.97 3.49 M90.66 105.31 C117.3 71.02, 148.26 37.94, 179.23 3.43 M90.66 105.31 C113.83 80.35, 136.53 54.04, 179.23 3.43 M111.92 105.24 C144.34 67.99, 176.95 32.45, 199.83 4.11 M111.92 105.24 C144 67.06, 177.51 30.4, 199.83 4.11 M133.18 105.17 C167.97 65.27, 202.56 26.41, 221.09 4.04 M133.18 105.17 C153.42 83.32, 171.75 60.35, 221.09 4.04 M153.79 105.86 C181.49 70.79, 211.81 36.82, 242.35 3.97 M153.79 105.86 C173.01 82.62, 192 61.43, 242.35 3.97 M175.05 105.79 C203.61 70.52, 234.91 36.57, 264.93 2.39 M175.05 105.79 C193.46 84.31, 213.52 62.44, 264.93 2.39 M196.31 105.72 C218.84 83.25, 239.62 58.92, 281.59 7.61 M196.31 105.72 C217.09 81.31, 239.85 55.16, 281.59 7.61 M217.57 105.65 C234.64 86.89, 249.06 70.81, 290.39 21.88 M217.57 105.65 C237.14 84.14, 256.8 61.66, 290.39 21.88 M238.83 105.58 C252.42 87.43, 267.14 72.78, 290 46.72 M238.83 105.58 C251.68 91.62, 262.36 78.46, 290 46.72 M260.09 105.51 C266.73 95.52, 278.82 87.28, 290.27 70.8 M260.09 105.51 C269.2 95.7, 277.7 85.51, 290.27 70.8" stroke="#a5d8ff" stroke-width="2" fill="none"></path><path d="M26.25 0 M26.25 0 C111.83 -2.95, 197.87 -2.6, 261.75 0 M26.25 0 C82.08 -0.98, 139.48 -2.31, 261.75 0 M261.75 0 C278.69 -1.34, 288.08 10.52, 288 26.25 M261.75 0 C279.16 -1.07, 289.88 9.25, 288 26.25 M288 26.25 C287.9 48.4, 287.6 68.82, 288 78.75 M288 26.25 C287.48 41.46, 287.21 57.6, 288 78.75 M288 78.75 C286.6 95.01, 277.45 103.78, 261.75 105 M288 78.75 C288.5 97.06, 278.51 105.48, 261.75 105 M261.75 105 C208.25 106.38, 152.7 104.7, 26.25 105 M261.75 105 C178.9 106.31, 96.06 105.68, 26.25 105 M26.25 105 C7.07 104.78, 1.21 95.56, 0 78.75 M26.25 105 C8.98 103.71, -0.8 94.91, 0 78.75 M0 78.75 C-1.56 57.14, -1.13 39.78, 0 26.25 M0 78.75 C-0.7 65.17, -0.06 50.64, 0 26.25 M0 26.25 C1.44 10.58, 10.11 -1.81, 26.25 0 M0 26.25 C-1.04 8.7, 10.09 0.45, 26.25 0" stroke="#1e1e1e" stroke-width="4" fill="none"></path></g><g transform="translate(420.3819258029429 46.400000000000006) rotate(0 84 16.099999999999994)"><text x="84" y="0" font-family="Helvetica, Segoe UI Emoji" font-size="28px" fill="#1e1e1e" text-anchor="middle" style="white-space: pre;" direction="ltr" dominant-baseline="text-before-edge">知識の収納庫</text></g><g stroke-linecap="round"><g transform="translate(94.38782900129831 245.0119861394915) rotate(0 416.12889840872384 0.39587565548717407)"><path d="M-0.5 -1.02 C138.23 -0.73, 693.98 1.34, 832.76 1.81" stroke="#ced4da" stroke-width="4.5" fill="none" stroke-dasharray="8 12"></path></g></g><mask></mask><g stroke-linecap="round"><g transform="translate(95.75987517412625 501.8727851321562) rotate(0 418.33088275566973 -0.1618418372639212)"><path d="M-1.02 -1.02 C138.59 -1.06, 697.75 0.46, 837.68 0.7" stroke="#ced4da" stroke-width="4.5" fill="none" stroke-dasharray="8 12"></path></g></g><mask></mask><g stroke-linecap="round"><g transform="translate(212.38192580294287 241) rotate(0 34.132778136153036 129.06041799709405)"><path d="M-1.14 0.34 C10.62 43.23, 57.81 214.13, 69.4 257.08 M0.47 -0.52 C12.21 42.6, 57.57 215.86, 68.73 258.64" stroke="#1e1e1e" stroke-width="4" fill="none"></path></g></g><mask></mask><g stroke-linecap="round"><g transform="translate(282.3819258029429 498) rotate(0 46.73836492020638 0.44383684210026786)"><path d="M0.34 0.64 C15.95 0.62, 78.83 -0.29, 94.42 -0.26 M-0.95 -0.07 C14.48 0.1, 78.03 1.31, 93.7 1.13" stroke="#1e1e1e" stroke-width="4" fill="none"></path></g></g><mask></mask><g stroke-linecap="round"><g transform="translate(378.3819258029429 497) rotate(0 34.166332984641826 -126.1809640812827)"><path d="M-0.41 0.3 C11.03 -41.66, 57.22 -210.61, 68.74 -252.66 M1.58 -0.59 C12.95 -42.27, 57.21 -208.96, 68.36 -251.21" stroke="#1e1e1e" stroke-width="4" fill="none"></path></g></g><mask></mask><g stroke-linecap="round"><g transform="translate(564.5793635792694 240.93958200290598) rotate(0 35.07385337704824 128.25389310073317)"><path d="M0.68 -0.27 C12.08 42.57, 56.86 214.93, 68.2 257.96 M-0.42 -1.45 C11.39 40.98, 59.17 213.41, 70.57 256.32" stroke="#1e1e1e" stroke-width="4" fill="none"></path></g></g><mask></mask><g stroke-linecap="round"><g transform="translate(634.5793635792694 497.93958200290604) rotate(0 46.615066797658756 0.13088889256817993)"><path d="M-0.67 0.92 C14.87 1.11, 77.92 1.18, 93.9 0.86 M1.18 0.36 C16.49 0.24, 77.26 -0.72, 92.9 -0.82" stroke="#1e1e1e" stroke-width="4" fill="none"></path></g></g><mask></mask><g stroke-linecap="round"><g transform="translate(730.5793635792694 496.93958200290604) rotate(0 33.60708172548618 -126.33014263018498)"><path d="M-0.1 0.86 C11.48 -41.55, 57.71 -211.24, 68.83 -253.52 M-1.61 0.26 C9.97 -42.11, 56.73 -210.53, 68.5 -252.51" stroke="#1e1e1e" stroke-width="4" fill="none"></path></g></g><mask></mask><g stroke-linecap="round"><g transform="translate(447.3819258029429 242) rotate(0 59.78970543709585 0.2601146782748174)"><path d="M0.83 0.25 C20.82 0.26, 100 -0.14, 119.77 -0.23 M-0.19 -0.67 C19.63 -0.45, 98.94 0.93, 118.7 1.19" stroke="#1e1e1e" stroke-width="4" fill="none"></path></g></g><mask></mask><g transform="translate(156.38192580294287 323) rotate(0 36 22.5)"><text x="72" y="0" font-family="Virgil, Segoe UI Emoji" font-size="36px" fill="#1e1e1e" text-anchor="end" style="white-space: pre;" direction="ltr" dominant-baseline="text-before-edge">探検</text></g><g transform="translate(290.3819258029429 522) rotate(0 36 45)"><text x="72" y="0" font-family="Virgil, Segoe UI Emoji" font-size="36px" fill="#1e1e1e" text-anchor="end" style="white-space: pre;" direction="ltr" dominant-baseline="text-before-edge">野外</text><text x="72" y="45" font-family="Virgil, Segoe UI Emoji" font-size="36px" fill="#1e1e1e" text-anchor="end" style="white-space: pre;" direction="ltr" dominant-baseline="text-before-edge">観察</text></g><g transform="translate(300.3819258029429 302) rotate(0 54 45)"><text x="108" y="0" font-family="Virgil, Segoe UI Emoji" font-size="36px" fill="#1e1e1e" text-anchor="end" style="white-space: pre;" direction="ltr" dominant-baseline="text-before-edge">発想と</text><text x="108" y="45" font-family="Virgil, Segoe UI Emoji" font-size="36px" fill="#1e1e1e" text-anchor="end" style="white-space: pre;" direction="ltr" dominant-baseline="text-before-edge">統合</text></g><g stroke-linecap="round" transform="translate(195.38192580294287 226) rotate(0 16.5 16.5)"><path d="M23.93 1.31 C27.02 2.51, 30.61 5.92, 32.15 9.2 C33.7 12.47, 34.33 17.33, 33.22 20.94 C32.1 24.56, 28.43 29.08, 25.47 30.91 C22.51 32.74, 18.97 32.28, 15.44 31.93 C11.92 31.58, 6.8 31.21, 4.31 28.8 C1.82 26.39, 0.64 21.03, 0.49 17.45 C0.33 13.87, 1.23 10.29, 3.37 7.34 C5.52 4.39, 9.29 0.45, 13.33 -0.26 C17.38 -0.97, 25.04 1.97, 27.64 3.05 C30.24 4.14, 29.09 5.95, 28.94 6.27 M18.88 0 C22.2 0.28, 26.46 3.59, 28.93 6.01 C31.39 8.42, 33.34 11.17, 33.67 14.48 C34 17.78, 33 22.72, 30.9 25.83 C28.79 28.94, 24.47 32.37, 21.03 33.12 C17.58 33.88, 13.46 31.83, 10.24 30.38 C7.02 28.92, 3.43 27.71, 1.72 24.39 C0.01 21.07, -1.15 14.19, -0.03 10.46 C1.09 6.73, 5.42 3.57, 8.44 2.01 C11.45 0.46, 16.32 1.57, 18.09 1.12 C19.86 0.68, 18.95 -0.74, 19.07 -0.68" stroke="none" stroke-width="0" fill="#ffc9c9"></path><path d="M10.05 1.23 C12.81 0.02, 17.59 0.53, 21.09 1.68 C24.6 2.84, 29.15 5.11, 31.08 8.16 C33.01 11.21, 33.32 16.47, 32.67 19.98 C32.03 23.48, 29.8 27.09, 27.19 29.18 C24.59 31.26, 20.67 32.35, 17.07 32.5 C13.47 32.65, 8.34 32.19, 5.58 30.08 C2.82 27.96, 0.98 23.3, 0.52 19.8 C0.06 16.3, 0.39 12.49, 2.82 9.07 C5.25 5.65, 12.5 0.77, 15.09 -0.75 C17.68 -2.26, 18.54 -0.45, 18.34 -0.03 M15.39 0.26 C18.87 0.24, 24.07 1.85, 26.93 4.07 C29.78 6.3, 31.71 10.28, 32.54 13.6 C33.36 16.92, 33.49 20.78, 31.88 24.01 C30.27 27.23, 26.34 31.79, 22.89 32.95 C19.44 34.1, 14.74 32.18, 11.17 30.94 C7.6 29.69, 3.5 28.3, 1.47 25.48 C-0.55 22.66, -1.88 17.45, -1 14.02 C-0.11 10.59, 3.79 7.26, 6.79 4.9 C9.78 2.55, 15.5 0.84, 16.99 -0.13 C18.48 -1.1, 15.71 -1.28, 15.71 -0.94" stroke="#1e1e1e" stroke-width="4" fill="none"></path></g><g transform="translate(197.76592848848975 177) rotate(0 11.807998657226562 22.5)"><text x="23.615997314453125" y="0" font-family="Virgil, Segoe UI Emoji" font-size="36px" fill="#1e1e1e" text-anchor="end" style="white-space: pre;" direction="ltr" dominant-baseline="text-before-edge">A</text></g><g stroke-linecap="round" transform="translate(260.8819258029429 477.5) rotate(0 16.5 16.5)"><path d="M9.38 2.67 C12.29 0.87, 17.41 0.26, 20.82 0.93 C24.22 1.59, 27.87 3.96, 29.82 6.64 C31.77 9.33, 32.73 13.55, 32.5 17.05 C32.27 20.56, 30.61 25.15, 28.43 27.68 C26.24 30.21, 22.89 31.62, 19.39 32.24 C15.89 32.86, 10.56 33.18, 7.42 31.41 C4.29 29.63, 1.57 25.01, 0.59 21.58 C-0.39 18.15, 0.07 14.11, 1.54 10.83 C3 7.54, 7.72 3.66, 9.37 1.87 C11.01 0.08, 11.09 -0.2, 11.42 0.1 M23.09 2.26 C26.46 3.14, 30.39 4.67, 32.12 7.49 C33.85 10.32, 34.38 15.47, 33.49 19.2 C32.59 22.93, 29.73 27.82, 26.75 29.9 C23.78 31.98, 19.35 32.12, 15.63 31.68 C11.92 31.23, 6.88 29.16, 4.47 27.22 C2.06 25.27, 1.3 23.32, 1.18 20 C1.05 16.69, 2.21 10.57, 3.74 7.32 C5.28 4.08, 7.03 1.49, 10.4 0.54 C13.77 -0.42, 21.75 1.41, 23.95 1.61 C26.14 1.81, 24.07 1.38, 23.56 1.74" stroke="none" stroke-width="0" fill="#ffc9c9"></path><path d="M9.23 1.79 C12.17 -0.02, 16.63 0.32, 20.14 0.96 C23.65 1.6, 28.04 3.07, 30.28 5.63 C32.51 8.19, 33.89 12.76, 33.54 16.31 C33.18 19.85, 30.51 24.19, 28.16 26.92 C25.82 29.65, 22.86 32.02, 19.49 32.7 C16.12 33.38, 11.05 32.78, 7.95 31 C4.85 29.21, 2.03 25.37, 0.9 21.98 C-0.23 18.59, -0.99 14.17, 1.15 10.65 C3.29 7.12, 11.08 2.42, 13.74 0.83 C16.39 -0.77, 17.17 0.83, 17.07 1.09 M20.11 1.55 C23.16 1.93, 26.41 2.35, 28.74 4.79 C31.08 7.22, 34.13 12.21, 34.12 16.16 C34.11 20.11, 31.07 25.88, 28.67 28.47 C26.28 31.07, 23.11 31.41, 19.76 31.72 C16.41 32.03, 11.49 31.98, 8.56 30.33 C5.63 28.68, 3.6 25, 2.19 21.81 C0.78 18.63, -1.17 14.58, 0.1 11.22 C1.36 7.86, 6.35 3.4, 9.8 1.65 C13.24 -0.1, 19.12 1.06, 20.76 0.72 C22.4 0.38, 19.86 -0.36, 19.64 -0.38" stroke="#1e1e1e" stroke-width="4" fill="none"></path></g><g transform="translate(234.20992873263037 517) rotate(0 13.08599853515625 22.5)"><text x="26.1719970703125" y="0" font-family="Virgil, Segoe UI Emoji" font-size="36px" fill="#1e1e1e" text-anchor="end" style="white-space: pre;" direction="ltr" dominant-baseline="text-before-edge">B</text></g><g stroke-linecap="round" transform="translate(359.8819258029429 479.5) rotate(0 16.5 16.5)"><path d="M22.57 1.98 C25.83 3.27, 29.63 6.52, 31.32 9.38 C33.02 12.23, 33.43 15.83, 32.75 19.1 C32.07 22.37, 30.09 26.7, 27.26 29 C24.42 31.29, 19.25 33.02, 15.74 32.88 C12.23 32.73, 8.76 30.43, 6.2 28.12 C3.64 25.82, 0.84 22.49, 0.39 19.02 C-0.06 15.55, 1.57 10.38, 3.49 7.3 C5.4 4.22, 7.8 1.12, 11.88 0.53 C15.97 -0.06, 24.84 2.74, 27.98 3.76 C31.11 4.77, 31.16 6.37, 30.69 6.64 M7.98 0.14 C10.65 -1.32, 16.83 -0.3, 20.55 0.75 C24.27 1.81, 28.2 3.87, 30.3 6.49 C32.39 9.11, 33.25 13.06, 33.11 16.48 C32.97 19.91, 32.17 24.12, 29.47 27.04 C26.77 29.95, 20.78 33.43, 16.92 33.97 C13.07 34.51, 9.25 32.24, 6.34 30.27 C3.43 28.31, 0.39 25.73, -0.52 22.17 C-1.44 18.61, -0.59 12.32, 0.87 8.91 C2.33 5.5, 6.74 2.68, 8.24 1.71 C9.74 0.73, 9.43 2.78, 9.85 3.07" stroke="none" stroke-width="0" fill="#ffc9c9"></path><path d="M10.58 1.65 C13.61 0.16, 19.1 -0.17, 22.35 0.91 C25.6 2, 28.49 5.14, 30.07 8.18 C31.66 11.22, 32.41 15.85, 31.86 19.17 C31.31 22.5, 29.21 25.7, 26.76 28.13 C24.31 30.56, 20.53 33.46, 17.17 33.75 C13.8 34.05, 9.23 32.2, 6.56 29.91 C3.89 27.61, 1.82 23.54, 1.15 19.98 C0.47 16.43, 0.45 11.9, 2.5 8.6 C4.55 5.3, 11.05 1.53, 13.44 0.18 C15.82 -1.17, 16.57 0.31, 16.8 0.49 M13.75 0.73 C16.93 -0.18, 22.44 -0.54, 25.65 1.09 C28.85 2.72, 32.15 6.87, 32.96 10.54 C33.78 14.2, 31.7 19.48, 30.53 23.07 C29.37 26.65, 28.82 30.45, 25.95 32.04 C23.09 33.63, 17 33.27, 13.34 32.6 C9.69 31.92, 6.11 30.93, 4.05 28 C1.99 25.06, 0.85 18.81, 0.98 14.96 C1.12 11.12, 2.67 7.32, 4.83 4.91 C7 2.51, 12.51 1.48, 13.99 0.54 C15.46 -0.41, 13.82 -0.73, 13.69 -0.76" stroke="#1e1e1e" stroke-width="4" fill="none"></path></g><g transform="translate(394.2839338595835 515.5) rotate(0 11.591995239257812 22.5)"><text x="23.183990478515625" y="0" font-family="Virgil, Segoe UI Emoji" font-size="36px" fill="#1e1e1e" text-anchor="end" style="white-space: pre;" direction="ltr" dominant-baseline="text-before-edge">C</text></g><g stroke-linecap="round" transform="translate(430.8819258029429 226.5) rotate(0 16.5 16.5)"><path d="M22.18 0.01 C25.76 0.94, 30.03 4.45, 31.63 7.46 C33.24 10.48, 32.55 14.5, 31.82 18.1 C31.08 21.7, 29.71 26.65, 27.24 29.08 C24.78 31.51, 20.53 32.78, 17.03 32.67 C13.53 32.56, 8.89 30.7, 6.24 28.42 C3.6 26.13, 1.96 22.15, 1.14 18.95 C0.32 15.75, -0.16 12.16, 1.33 9.21 C2.82 6.26, 6.29 2.27, 10.06 1.24 C13.84 0.22, 21.21 2.65, 23.98 3.07 C26.74 3.5, 26.78 3.69, 26.63 3.8 M18.22 -1.27 C21.44 -1.44, 26.05 1.26, 28.45 3.97 C30.85 6.68, 32.31 11.51, 32.62 14.97 C32.92 18.42, 32.08 22.02, 30.3 24.7 C28.52 27.38, 25.38 30, 21.92 31.04 C18.46 32.08, 13.06 32.09, 9.55 30.95 C6.04 29.81, 2.6 27.54, 0.86 24.2 C-0.89 20.87, -1.98 14.26, -0.91 10.95 C0.15 7.63, 4.21 6.35, 7.26 4.3 C10.32 2.25, 15.86 -0.89, 17.43 -1.34 C19.01 -1.79, 16.56 1.26, 16.71 1.59" stroke="none" stroke-width="0" fill="#ffc9c9"></path><path d="M13.17 -0.1 C16.57 -1, 22.64 0.16, 25.78 2.06 C28.93 3.96, 30.92 8.08, 32.03 11.32 C33.14 14.55, 33.6 18.27, 32.47 21.47 C31.34 24.68, 28.56 28.59, 25.24 30.55 C21.92 32.51, 15.99 33.71, 12.56 33.25 C9.13 32.79, 6.77 30.62, 4.66 27.79 C2.55 24.96, -0.01 19.84, -0.1 16.28 C-0.18 12.73, 1.41 9.32, 4.13 6.46 C6.86 3.6, 13.95 0.21, 16.26 -0.9 C18.57 -2.01, 18.09 -0.69, 18.02 -0.22 M14.22 1.06 C18.01 1.02, 24.8 2.73, 27.8 4.5 C30.81 6.28, 31.75 8.25, 32.27 11.69 C32.8 15.13, 32.46 21.68, 30.96 25.16 C29.46 28.64, 26.46 31.61, 23.27 32.58 C20.08 33.55, 15.1 32.28, 11.82 30.96 C8.54 29.64, 5.58 27.44, 3.59 24.66 C1.61 21.88, -0.56 17.81, -0.08 14.28 C0.39 10.76, 3.75 5.81, 6.43 3.5 C9.12 1.19, 14.25 1.05, 16.03 0.42 C17.81 -0.21, 17.06 -0.42, 17.12 -0.28" stroke="#1e1e1e" stroke-width="4" fill="none"></path></g><g transform="translate(433.89393446993506 176.5) rotate(0 14.039993286132812 22.5)"><text x="28.079986572265625" y="0" font-family="Virgil, Segoe UI Emoji" font-size="36px" fill="#1e1e1e" text-anchor="end" style="white-space: pre;" direction="ltr" dominant-baseline="text-before-edge">D</text></g><g stroke-linecap="round" transform="translate(547.8819258029429 225.5) rotate(0 16.5 16.5)"><path d="M9.64 1.62 C12.5 -0.29, 15.59 -1.25, 19.04 -0.38 C22.49 0.48, 28.12 3.75, 30.33 6.79 C32.54 9.83, 32.63 14.28, 32.29 17.84 C31.95 21.4, 30.41 25.78, 28.29 28.14 C26.16 30.51, 22.97 31.71, 19.55 32.03 C16.13 32.35, 10.79 31.71, 7.79 30.08 C4.79 28.45, 2.63 25.55, 1.54 22.24 C0.46 18.94, -0.24 13.85, 1.28 10.26 C2.8 6.67, 8.48 2.31, 10.68 0.72 C12.88 -0.86, 14.31 0.35, 14.48 0.75 M8.35 2.07 C11.25 0.21, 16.09 -0.77, 19.47 0.11 C22.84 1, 26.51 4.42, 28.58 7.38 C30.65 10.35, 31.8 14.68, 31.89 17.91 C31.98 21.13, 31.14 24.21, 29.12 26.73 C27.1 29.25, 23.26 32.53, 19.77 33.03 C16.27 33.54, 11.5 31.83, 8.14 29.75 C4.79 27.67, 0.79 23.9, -0.34 20.53 C-1.47 17.17, -0.34 12.41, 1.34 9.56 C3.03 6.7, 8.49 4.35, 9.78 3.38 C11.07 2.41, 9.21 3.82, 9.1 3.74" stroke="none" stroke-width="0" fill="#ffc9c9"></path><path d="M14.73 0.28 C18.13 -0.14, 23.56 1.99, 26.45 4.1 C29.35 6.2, 31.32 9.5, 32.09 12.93 C32.86 16.37, 32.55 21.49, 31.07 24.71 C29.6 27.93, 26.57 31.08, 23.22 32.23 C19.87 33.37, 14.31 32.81, 10.97 31.58 C7.63 30.35, 4.81 27.74, 3.16 24.86 C1.51 21.97, 0.94 17.8, 1.09 14.27 C1.23 10.74, 1.41 6.04, 4.04 3.68 C6.67 1.33, 14.42 0.74, 16.88 0.15 C19.34 -0.44, 18.76 0.04, 18.79 0.14 M24.21 0.65 C27.58 1.81, 29.92 4.93, 31.52 8.12 C33.13 11.31, 34.84 16.39, 33.85 19.81 C32.85 23.22, 28.6 26.37, 25.55 28.6 C22.49 30.84, 18.73 33.15, 15.52 33.21 C12.31 33.28, 8.77 31.7, 6.26 28.99 C3.75 26.28, 0.97 20.69, 0.45 16.94 C-0.08 13.19, 1.27 9.21, 3.13 6.5 C4.99 3.78, 8.21 1.67, 11.59 0.62 C14.98 -0.43, 21.33 0.25, 23.42 0.2 C25.5 0.15, 24.28 -0.03, 24.12 0.33" stroke="#1e1e1e" stroke-width="4" fill="none"></path></g><g transform="translate(552.1579267795054 176.5) rotate(0 12.131996154785156 22.5)"><text x="24.263992309570312" y="0" font-family="Virgil, Segoe UI Emoji" font-size="36px" fill="#1e1e1e" text-anchor="end" style="white-space: pre;" direction="ltr" dominant-baseline="text-before-edge">E</text></g><g stroke-linecap="round" transform="translate(615.8819258029429 482.5) rotate(0 16.5 16.5)"><path d="M22.82 0.71 C26.23 1.68, 29.94 5.75, 31.61 8.86 C33.28 11.96, 33.78 16.04, 32.83 19.35 C31.88 22.65, 28.69 26.5, 25.9 28.68 C23.11 30.86, 19.37 32.23, 16.1 32.4 C12.82 32.57, 8.87 31.82, 6.25 29.72 C3.63 27.62, 1.03 23.52, 0.37 19.81 C-0.29 16.09, 0.6 10.68, 2.29 7.43 C3.97 4.17, 6.74 1.25, 10.48 0.27 C14.22 -0.7, 22.5 1.06, 24.73 1.6 C26.96 2.15, 24.19 3.34, 23.87 3.53 M24.24 2.63 C27.76 3.87, 31.12 6.44, 32.51 9.31 C33.91 12.18, 33.76 16.29, 32.61 19.85 C31.46 23.42, 28.56 28.75, 25.6 30.71 C22.64 32.67, 18.48 32.22, 14.86 31.62 C11.25 31.02, 6.25 29.2, 3.92 27.11 C1.59 25.02, 0.96 22.4, 0.89 19.08 C0.81 15.76, 1.82 10.11, 3.49 7.19 C5.15 4.27, 7.52 2.62, 10.85 1.58 C14.18 0.53, 21.46 0.97, 23.45 0.93 C25.43 0.88, 23.01 0.86, 22.79 1.31" stroke="none" stroke-width="0" fill="#ffc9c9"></path><path d="M13.08 0.54 C16.53 -0.18, 21.82 0.82, 24.98 2.29 C28.13 3.76, 30.76 6.25, 32.01 9.37 C33.25 12.48, 33.59 17.48, 32.44 20.99 C31.28 24.5, 28.09 28.59, 25.09 30.44 C22.09 32.28, 17.78 32.67, 14.44 32.04 C11.09 31.41, 7.42 29.21, 5.01 26.67 C2.6 24.13, 0.33 20.1, -0.01 16.79 C-0.35 13.49, 0.53 9.79, 2.98 6.84 C5.42 3.9, 12.06 0.05, 14.63 -0.88 C17.2 -1.8, 18.26 1, 18.39 1.27 M9.4 2.25 C12.13 0.86, 17.32 0.97, 21.05 1.71 C24.77 2.44, 29.77 3.87, 31.75 6.64 C33.73 9.41, 33.45 14.47, 32.92 18.34 C32.39 22.21, 31.21 27.43, 28.57 29.87 C25.92 32.3, 20.86 33.08, 17.04 32.96 C13.23 32.84, 8.22 31.28, 5.68 29.12 C3.14 26.96, 2.39 23.27, 1.81 20.01 C1.22 16.76, 0.98 12.85, 2.17 9.6 C3.36 6.35, 7.51 1.92, 8.95 0.51 C10.38 -0.89, 10.41 0.87, 10.77 1.17" stroke="#1e1e1e" stroke-width="4" fill="none"></path></g><g transform="translate(597.8499357516733 525.5) rotate(0 10.331993103027344 22.5)"><text x="20.663986206054688" y="0" font-family="Virgil, Segoe UI Emoji" font-size="36px" fill="#1e1e1e" text-anchor="end" style="white-space: pre;" direction="ltr" dominant-baseline="text-before-edge">F</text></g><g stroke-linecap="round" transform="translate(713.8819258029429 482.5) rotate(0 16.5 16.5)"><path d="M8.56 1.42 C11.28 -0.37, 16.24 -1.02, 19.82 -0.06 C23.4 0.91, 27.85 4.15, 30.04 7.21 C32.23 10.26, 33.16 14.89, 32.96 18.29 C32.76 21.69, 31.15 25.18, 28.84 27.6 C26.54 30.01, 22.53 32.46, 19.14 32.77 C15.75 33.09, 11.6 31.27, 8.51 29.49 C5.42 27.71, 1.92 25.42, 0.59 22.12 C-0.73 18.82, -1.37 13.31, 0.58 9.7 C2.53 6.09, 9.98 1.86, 12.28 0.44 C14.57 -0.99, 14.49 0.92, 14.36 1.16 M24.13 0.6 C26.9 1.91, 28.79 5.78, 29.99 8.81 C31.19 11.84, 32 15.5, 31.35 18.76 C30.7 22.02, 28.86 25.89, 26.11 28.36 C23.35 30.83, 18.14 33.72, 14.82 33.57 C11.5 33.42, 8.82 30.16, 6.18 27.46 C3.54 24.76, -0.26 20.45, -1.03 17.37 C-1.8 14.29, -0.62 11.95, 1.57 8.98 C3.75 6.01, 8.55 0.63, 12.06 -0.46 C15.58 -1.56, 21.1 2.21, 22.64 2.42 C24.18 2.62, 21.57 0.71, 21.3 0.76" stroke="none" stroke-width="0" fill="#ffc9c9"></path><path d="M17.04 0.17 C20.26 0.33, 25.03 2.17, 27.63 4.55 C30.24 6.93, 32.32 10.81, 32.67 14.44 C33.01 18.07, 31.75 23.25, 29.72 26.33 C27.7 29.42, 23.76 32.14, 20.49 32.95 C17.23 33.76, 13.17 32.66, 10.14 31.17 C7.11 29.69, 3.9 27.21, 2.31 24.04 C0.73 20.87, 0.04 15.74, 0.63 12.15 C1.22 8.55, 2.45 4.49, 5.86 2.47 C9.26 0.44, 17.89 -0.1, 21.04 0.01 C24.2 0.12, 24.84 2.58, 24.78 3.11 M14.06 1.46 C17.45 0.91, 22.37 -0.16, 25.66 1.53 C28.94 3.22, 32.92 7.77, 33.77 11.62 C34.63 15.47, 32.68 21.38, 30.79 24.62 C28.89 27.87, 25.32 29.59, 22.38 31.08 C19.44 32.56, 16.18 34.42, 13.14 33.55 C10.1 32.68, 6.28 29.07, 4.13 25.86 C1.98 22.65, 0.19 17.66, 0.23 14.29 C0.27 10.92, 1.96 8.22, 4.38 5.63 C6.79 3.04, 13.11 -0.2, 14.72 -1.24 C16.33 -2.28, 13.84 -1.31, 14.03 -0.62" stroke="#1e1e1e" stroke-width="4" fill="none"></path></g><g transform="translate(726.3099272067515 526.5) rotate(0 14.201995849609375 22.5)"><text x="28.40399169921875" y="0" font-family="Virgil, Segoe UI Emoji" font-size="36px" fill="#1e1e1e" text-anchor="end" style="white-space: pre;" direction="ltr" dominant-baseline="text-before-edge">G</text></g><g stroke-linecap="round" transform="translate(786.8819258029429 223.5) rotate(0 16.5 16.5)"><path d="M14.21 0.74 C17.48 -0.03, 21.25 -0.08, 24.08 1.52 C26.91 3.13, 29.72 6.85, 31.17 10.38 C32.62 13.91, 34.04 19.31, 32.8 22.71 C31.56 26.12, 26.85 29.29, 23.76 30.81 C20.66 32.33, 17.66 32.59, 14.24 31.83 C10.82 31.07, 5.6 28.93, 3.22 26.24 C0.85 23.55, -0.31 19.01, -0.02 15.71 C0.26 12.4, 2.34 9.01, 4.92 6.41 C7.51 3.8, 13.87 1.01, 15.51 0.09 C17.15 -0.82, 14.78 0.75, 14.79 0.92 M25.34 2.66 C28.47 3.99, 30.38 6.59, 31.76 9.97 C33.13 13.35, 34.79 19.38, 33.6 22.93 C32.4 26.49, 27.88 29.64, 24.59 31.32 C21.31 32.99, 17.27 33.75, 13.89 32.99 C10.5 32.23, 6.41 29.36, 4.29 26.76 C2.16 24.16, 1.03 20.96, 1.15 17.39 C1.27 13.81, 3.04 8.07, 5.01 5.31 C6.97 2.55, 9.91 1.59, 12.94 0.83 C15.96 0.06, 21.51 0.65, 23.14 0.71 C24.76 0.78, 22.63 0.87, 22.68 1.22" stroke="none" stroke-width="0" fill="#ffc9c9"></path><path d="M12.25 1 C15.42 0.22, 21.19 0.86, 24.38 2.34 C27.57 3.81, 30.15 6.78, 31.38 9.85 C32.6 12.92, 32.6 17.4, 31.74 20.77 C30.88 24.13, 29.19 28.11, 26.23 30.04 C23.26 31.96, 17.67 32.58, 13.96 32.33 C10.26 32.08, 6.18 30.94, 3.99 28.56 C1.81 26.18, 0.96 21.81, 0.84 18.04 C0.71 14.26, 0.8 8.91, 3.24 5.91 C5.68 2.91, 13.21 1.04, 15.46 0.05 C17.7 -0.95, 16.84 -0.25, 16.7 -0.05 M21.01 0.68 C24.15 1.26, 27.11 4.06, 29.08 6.97 C31.05 9.89, 33.08 14.84, 32.85 18.19 C32.62 21.54, 29.79 24.83, 27.7 27.08 C25.61 29.33, 23.67 30.94, 20.3 31.7 C16.93 32.47, 10.79 33.32, 7.49 31.68 C4.18 30.04, 1.36 25.5, 0.46 21.85 C-0.43 18.2, 0.9 12.87, 2.11 9.78 C3.33 6.68, 4.61 5.08, 7.77 3.27 C10.92 1.45, 18.83 -0.59, 21.02 -1.14 C23.21 -1.68, 21.38 -0.53, 20.9 -0.02" stroke="#1e1e1e" stroke-width="4" fill="none"></path></g><g transform="translate(794.747923117396 174.5) rotate(0 9.917999267578125 22.5)"><text x="19.83599853515625" y="0" font-family="Virgil, Segoe UI Emoji" font-size="36px" fill="#1e1e1e" text-anchor="end" style="white-space: pre;" direction="ltr" dominant-baseline="text-before-edge">H</text></g><g transform="translate(472.3819258029429 256) rotate(0 36 22.5)"><text x="72" y="0" font-family="Virgil, Segoe UI Emoji" font-size="36px" fill="#1e1e1e" text-anchor="end" style="white-space: pre;" direction="ltr" dominant-baseline="text-before-edge">推論</text></g><g transform="translate(511.3819258029429 359) rotate(0 36 45)"><text x="72" y="0" font-family="Virgil, Segoe UI Emoji" font-size="36px" fill="#1e1e1e" text-anchor="end" style="white-space: pre;" direction="ltr" dominant-baseline="text-before-edge">実験</text><text x="72" y="45" font-family="Virgil, Segoe UI Emoji" font-size="36px" fill="#1e1e1e" text-anchor="end" style="white-space: pre;" direction="ltr" dominant-baseline="text-before-edge">準備</text></g><g transform="translate(642.3819258029429 533) rotate(0 36 45)"><text x="72" y="0" font-family="Virgil, Segoe UI Emoji" font-size="36px" fill="#1e1e1e" text-anchor="end" style="white-space: pre;" direction="ltr" dominant-baseline="text-before-edge">実験</text><text x="72" y="45" font-family="Virgil, Segoe UI Emoji" font-size="36px" fill="#1e1e1e" text-anchor="end" style="white-space: pre;" direction="ltr" dominant-baseline="text-before-edge">観察</text></g><g transform="translate(691.3819258029429 305) rotate(0 36 22.5)"><text x="72" y="0" font-family="Virgil, Segoe UI Emoji" font-size="36px" fill="#1e1e1e" text-anchor="end" style="white-space: pre;" direction="ltr" dominant-baseline="text-before-edge">検証</text></g><g stroke-linecap="round"><g transform="translate(810.3822616011388 165.69507627416954) rotate(0 -75.159193960469 -44.18825954949985)"><path d="M0.53 0.19 C-2.67 -9.1, 5.47 -40.36, -19.76 -55.15 C-44.99 -69.94, -129.12 -83.09, -150.85 -88.56 M-0.65 -0.76 C-3.42 -9.9, 7.18 -39.26, -17.44 -53.68 C-42.07 -68.1, -126.31 -81.19, -148.4 -87.29" stroke="#1e1e1e" stroke-width="2" fill="none"></path></g><g transform="translate(810.3822616011388 165.69507627416954) rotate(0 -75.159193960469 -44.18825954949985)"><path d="M-118.36 -92.61 C-126.44 -91.6, -133.95 -89.37, -147.54 -86.25 M-118.08 -92.09 C-127.63 -91.13, -136.44 -88.26, -148.19 -87.22" stroke="#1e1e1e" stroke-width="2" fill="none"></path></g><g transform="translate(810.3822616011388 165.69507627416954) rotate(0 -75.159193960469 -44.18825954949985)"><path d="M-122.71 -72.56 C-129.77 -76.67, -136.17 -79.56, -147.54 -86.25 M-122.42 -72.03 C-130.71 -77.05, -138.23 -80.18, -148.19 -87.22" stroke="#1e1e1e" stroke-width="2" fill="none"></path></g></g><mask></mask><g stroke-linecap="round"><g transform="translate(755.3819258029429 496.6666657924652) rotate(0 44.82781847127899 -211.60709951745346)"><path d="M-0.86 -0.71 C29.63 -61.9, 197.73 -297.94, 182.32 -368.31 C166.92 -438.69, -47.15 -413.48, -93.28 -422.95 M0.89 1.53 C31.3 -59.38, 197.31 -295.9, 181.55 -366.94 C165.79 -437.99, -47.67 -415.13, -93.66 -424.74" stroke="#1e1e1e" stroke-width="2" fill="none"></path></g><g transform="translate(755.3819258029429 496.6666657924652) rotate(0 44.82781847127899 -211.60709951745346)"><path d="M-66.25 -433.24 C-72.84 -430.52, -77.73 -430.15, -95.53 -423.62 M-65.56 -434.36 C-73.96 -431.63, -82.67 -427.85, -94.47 -425" stroke="#1e1e1e" stroke-width="2" fill="none"></path></g><g transform="translate(755.3819258029429 496.6666657924652) rotate(0 44.82781847127899 -211.60709951745346)"><path d="M-67.13 -412.74 C-73.29 -415.15, -77.97 -419.91, -95.53 -423.62 M-66.44 -413.86 C-74.54 -417.07, -82.99 -419.23, -94.47 -425" stroke="#1e1e1e" stroke-width="2" fill="none"></path></g></g><mask></mask><g stroke-linecap="round" transform="translate(53.381925802942874 177.6666657924652) rotate(0 63 22.5)"><path d="M2.99 2.6 C2.99 2.6, 2.99 2.6, 2.99 2.6 M2.99 2.6 C2.99 2.6, 2.99 2.6, 2.99 2.6 M9.82 19.14 C13.04 14.54, 16.34 10.65, 19.66 7.82 M9.82 19.14 C11.89 16.27, 13.68 14.62, 19.66 7.82 M8.12 45.48 C17.51 37.29, 25.78 26.35, 40.92 7.75 M8.12 45.48 C18.32 34.08, 27 23.02, 40.92 7.75 M28.72 46.17 C40.77 35.6, 50.55 21.09, 62.18 7.68 M28.72 46.17 C36.41 35.01, 47.06 25.08, 62.18 7.68 M49.98 46.1 C56.4 36.41, 66.05 28.69, 83.44 7.61 M49.98 46.1 C60.03 35.88, 67.84 24.32, 83.44 7.61 M71.24 46.03 C79.4 33.73, 88.8 23.61, 104.05 8.3 M71.24 46.03 C83.64 31.92, 95.59 16.37, 104.05 8.3 M92.5 45.96 C106.21 31.97, 120.19 16.41, 125.96 7.47 M92.5 45.96 C100.97 35.87, 108.87 25.72, 125.96 7.47 M113.11 46.65 C116.15 39.41, 124.43 33.86, 126.23 31.55 M113.11 46.65 C117 40.65, 121.55 36.83, 126.23 31.55" stroke="#ffc9c9" stroke-width="2" fill="none"></path><path d="M11.25 0 M11.25 0 C42.51 -2.06, 71.32 -2.3, 114.75 0 M11.25 0 C49.63 0.72, 88.5 -0.57, 114.75 0 M114.75 0 C121.91 -0.27, 125.04 4.66, 126 11.25 M114.75 0 C121.32 -1.55, 123.88 2.82, 126 11.25 M126 11.25 C127.78 16.13, 124.29 24.71, 126 33.75 M126 11.25 C125.5 18.41, 126.97 25.54, 126 33.75 M126 33.75 C126.15 41.29, 121.77 43.04, 114.75 45 M126 33.75 C127.86 43.2, 120.61 44.49, 114.75 45 M114.75 45 C94.21 43.29, 69.96 43.83, 11.25 45 M114.75 45 C90.37 45.87, 63.99 46.2, 11.25 45 M11.25 45 C3.35 44.05, 1.03 39.94, 0 33.75 M11.25 45 C4.64 46.06, 1.82 42.48, 0 33.75 M0 33.75 C-0.03 25.67, -1.65 16.52, 0 11.25 M0 33.75 C0.97 27.9, 0.91 19.59, 0 11.25 M0 11.25 C-1.83 1.95, 2.12 0.82, 11.25 0 M0 11.25 C-2 5.63, 5.81 1.38, 11.25 0" stroke="#1e1e1e" stroke-width="4" fill="none"></path></g><g transform="translate(60.381925802942874 182.6666657924652) rotate(0 56 17.5)"><text x="56" y="0" font-family="Virgil, Segoe UI Emoji" font-size="28px" fill="#1e1e1e" text-anchor="middle" style="white-space: pre;" direction="ltr" dominant-baseline="text-before-edge">問題提起</text></g><g stroke-linecap="round"><g transform="translate(185.63116493410587 227.66136400972925) rotate(0 1.9565307970588606 4.996670093612408)"><path d="M0.8 0.79 C1.36 2.31, 3.56 7.2, 4.16 8.42 M-0.24 0.16 C0.05 1.92, 2.35 8.33, 2.97 9.83" stroke="#1e1e1e" stroke-width="4" fill="none"></path></g></g><mask></mask><g stroke-linecap="round" transform="translate(282.3819258029429 132.1666657924652) rotate(0 63 22.5)"><path d="M2.99 2.6 C2.99 2.6, 2.99 2.6, 2.99 2.6 M2.99 2.6 C2.99 2.6, 2.99 2.6, 2.99 2.6 M9.82 19.14 C13.01 15.44, 14.35 14.12, 19.66 7.82 M9.82 19.14 C11.23 16.62, 13.98 13.69, 19.66 7.82 M8.12 45.48 C17.36 35.92, 27.7 23.41, 40.92 7.75 M8.12 45.48 C18.18 34.06, 29.47 22.63, 40.92 7.75 M28.72 46.17 C35.56 36.31, 43.97 29.25, 62.18 7.68 M28.72 46.17 C39.35 33.17, 49.95 20.37, 62.18 7.68 M49.98 46.1 C57 38.14, 66.26 27.97, 83.44 7.61 M49.98 46.1 C57.14 36.6, 65.73 27.88, 83.44 7.61 M71.24 46.03 C78.8 36.36, 83.56 30.32, 104.05 8.3 M71.24 46.03 C77.75 38.37, 85.83 29.49, 104.05 8.3 M92.5 45.96 C106.49 32.3, 117.96 15.71, 125.96 7.47 M92.5 45.96 C101.23 35.58, 110.26 24.26, 125.96 7.47 M113.11 46.65 C113.94 44.31, 116.45 41.87, 126.23 31.55 M113.11 46.65 C116.89 43.41, 118.47 39.96, 126.23 31.55" stroke="#ffc9c9" stroke-width="2" fill="none"></path><path d="M11.25 0 M11.25 0 C51.17 -2.39, 90.63 -1.78, 114.75 0 M11.25 0 C41.6 0.32, 71.07 0.71, 114.75 0 M114.75 0 C120.88 -1.48, 126.92 4.34, 126 11.25 M114.75 0 C122.53 1.34, 126.77 2.41, 126 11.25 M126 11.25 C124.7 17.82, 127.98 24.83, 126 33.75 M126 11.25 C125.75 17.92, 126.05 25.78, 126 33.75 M126 33.75 C124.94 40.14, 124.23 43.26, 114.75 45 M126 33.75 C128.29 39.85, 124.47 44.14, 114.75 45 M114.75 45 C78.92 44.51, 41.35 45.76, 11.25 45 M114.75 45 C74.68 44.6, 33.71 45.92, 11.25 45 M11.25 45 C2.83 45.9, 0.04 41.29, 0 33.75 M11.25 45 C6.01 44.98, 1.31 41.55, 0 33.75 M0 33.75 C1.93 25.74, 1.05 23, 0 11.25 M0 33.75 C-0.21 25.83, -0.52 18.85, 0 11.25 M0 11.25 C0.85 2.44, 5.25 -0.17, 11.25 0 M0 11.25 C-0.03 2.11, 1.81 2.06, 11.25 0" stroke="#1e1e1e" stroke-width="4" fill="none"></path></g><g transform="translate(289.3819258029429 137.1666657924652) rotate(0 56 17.5)"><text x="56" y="0" font-family="Virgil, Segoe UI Emoji" font-size="28px" fill="#1e1e1e" text-anchor="middle" style="white-space: pre;" direction="ltr" dominant-baseline="text-before-edge">情勢判断</text></g><g stroke-linecap="round" transform="translate(280.3819258029429 187.1666657924652) rotate(0 63 22.5)"><path d="M2.99 2.6 C2.99 2.6, 2.99 2.6, 2.99 2.6 M2.99 2.6 C2.99 2.6, 2.99 2.6, 2.99 2.6 M9.82 19.14 C11.98 15.35, 15.19 15.07, 19.66 7.82 M9.82 19.14 C14.42 14.55, 16.93 10.29, 19.66 7.82 M8.12 45.48 C18.27 34.75, 26.26 26.1, 40.92 7.75 M8.12 45.48 C21.53 29.65, 34.51 15.49, 40.92 7.75 M28.72 46.17 C38.95 36.17, 46.71 25.14, 62.18 7.68 M28.72 46.17 C39.61 33.97, 49.94 22.56, 62.18 7.68 M49.98 46.1 C59.18 32.71, 67.9 24.77, 83.44 7.61 M49.98 46.1 C56.8 37.84, 62.91 29.92, 83.44 7.61 M71.24 46.03 C79.45 36.72, 87.27 29.63, 104.05 8.3 M71.24 46.03 C82.21 34.76, 91 23.32, 104.05 8.3 M92.5 45.96 C103.46 30.66, 118.57 17.77, 125.96 7.47 M92.5 45.96 C102.34 35.56, 110.16 26.32, 125.96 7.47 M113.11 46.65 C119.24 40.78, 121.52 37.3, 126.23 31.55 M113.11 46.65 C115.77 42.51, 118.19 39.1, 126.23 31.55" stroke="#ffc9c9" stroke-width="2" fill="none"></path><path d="M11.25 0 M11.25 0 C48.88 -1.44, 86.32 -0.32, 114.75 0 M11.25 0 C50.54 -1, 90.47 -0.64, 114.75 0 M114.75 0 C121.44 1.41, 125.61 4.13, 126 11.25 M114.75 0 C123.7 1.89, 124.65 2.58, 126 11.25 M126 11.25 C126.89 19.94, 126.82 25.52, 126 33.75 M126 11.25 C126.6 19.12, 125.06 27.49, 126 33.75 M126 33.75 C124.97 40.85, 123.99 43.06, 114.75 45 M126 33.75 C127.53 40.86, 120.19 44.81, 114.75 45 M114.75 45 C75.8 44.41, 35.99 45.3, 11.25 45 M114.75 45 C76.66 44.27, 38.79 44.7, 11.25 45 M11.25 45 C1.76 44.76, -0.01 41.44, 0 33.75 M11.25 45 C2.12 43.74, -1.66 40.6, 0 33.75 M0 33.75 C-0.87 27.05, 0.07 20.65, 0 11.25 M0 33.75 C0.19 26, -0.13 19.09, 0 11.25 M0 11.25 C-1.84 5.52, 4.8 0, 11.25 0 M0 11.25 C-1.52 2.34, 4.57 -2.14, 11.25 0" stroke="#1e1e1e" stroke-width="4" fill="none"></path></g><g transform="translate(315.3819258029429 192.1666657924652) rotate(0 28 17.5)"><text x="28" y="0" font-family="Virgil, Segoe UI Emoji" font-size="28px" fill="#1e1e1e" text-anchor="middle" style="white-space: pre;" direction="ltr" dominant-baseline="text-before-edge">決断</text></g><g stroke-linecap="round"><g transform="translate(418.3819258029429 159.6666657924652) rotate(0 6.678034533299524 35.42479147538543)"><path d="M0.28 0.73 C2.82 12.2, 11.99 57.93, 14.39 69.51 M-1.04 0.06 C1.46 11.63, 11.1 58.87, 13.65 70.79" stroke="#1e1e1e" stroke-width="4" fill="none"></path></g></g><mask></mask><g stroke-linecap="round"><g transform="translate(415.3819258029429 215.6666657924652) rotate(0 5.174964165957647 12.685254941461608)"><path d="M0.45 0.58 C2.3 4.89, 9.47 21.33, 11.13 25.54 M-0.78 -0.17 C1.01 3.83, 9 19.68, 10.77 23.69" stroke="#1e1e1e" stroke-width="4" fill="none"></path></g></g><mask></mask><g stroke-linecap="round"><g transform="translate(343.3819258029429 54.66666579246521) rotate(0 -166.63424455145594 221.47737578505064)"><path d="M0.11 -1.1 C-52.19 11.53, -264.44 16.04, -312.84 75.06 C-361.23 134.07, -308.06 291.57, -290.24 352.99 C-272.43 414.41, -227.1 438.79, -205.93 443.59 C-184.76 448.4, -157.94 414.66, -163.2 381.81 C-168.47 348.97, -239.37 276.8, -237.52 246.51 C-235.67 216.22, -166.46 207.92, -152.11 200.09 M-1.29 0.94 C-53.81 13.32, -265.48 14.6, -313.7 73.49 C-361.92 132.38, -308.62 293, -290.61 354.31 C-272.6 415.62, -226.7 436.71, -205.64 441.35 C-184.59 445.98, -158.61 414.71, -164.26 382.11 C-169.9 349.5, -241.64 276.29, -239.52 245.74 C-237.4 215.19, -166.09 206.59, -151.53 198.79" stroke="#1e1e1e" stroke-width="2" fill="none"></path></g><g transform="translate(343.3819258029429 54.66666579246521) rotate(0 -166.63424455145594 221.47737578505064)"><path d="M-177.21 217.25 C-164.45 211.31, -157.16 203.26, -150.54 200.12 M-175.48 217.05 C-168.17 211.31, -162.79 205.89, -151.3 199.49" stroke="#1e1e1e" stroke-width="2" fill="none"></path></g><g transform="translate(343.3819258029429 54.66666579246521) rotate(0 -166.63424455145594 221.47737578505064)"><path d="M-183.32 197.66 C-168.36 199.15, -158.75 198.54, -150.54 200.12 M-181.59 197.46 C-172.47 197.27, -165.35 197.42, -151.3 199.49" stroke="#1e1e1e" stroke-width="2" fill="none"></path></g></g><mask></mask></svg>